<?xml version="1.0" encoding="utf-8"?>
<!-- Generator: Adobe Illustrator 22.0.0, SVG Export Plug-In . SVG Version: 6.00 Build 0)  -->
<svg version="1.1" id="图层_1" xmlns="http://www.w3.org/2000/svg" xmlns:xlink="http://www.w3.org/1999/xlink" x="0px" y="0px"
	 viewBox="0 0 222 222" style="enable-background:new 0 0 222 222;" xml:space="preserve">
<style type="text/css">
	.st0{fill:url(#SVGID_1_);}
	.st1{fill:url(#SVGID_2_);}
	.st2{fill:url(#SVGID_3_);}
	.st3{fill:#FFFFFF;}
	.st4{fill:url(#SVGID_4_);}
	.st5{fill:url(#SVGID_5_);}
	.st6{fill:url(#SVGID_6_);}
	.st7{fill:none;}
	.st8{fill:url(#SVGID_7_);}
	.st9{fill:url(#SVGID_8_);}
	.st10{fill:url(#SVGID_9_);}
	.st11{fill:url(#SVGID_10_);}
	.st12{fill:url(#SVGID_11_);}
	.st13{fill:url(#SVGID_12_);}
	.st14{fill:url(#SVGID_13_);}
	.st15{fill:url(#SVGID_14_);}
	.st16{fill:url(#SVGID_15_);}
	.st17{fill:url(#SVGID_16_);}
	.st18{fill:url(#SVGID_17_);}
	.st19{fill:url(#SVGID_18_);}
	.st20{fill:url(#SVGID_19_);}
	.st21{fill:url(#SVGID_20_);}
	.st22{fill:url(#SVGID_21_);}
	.st23{fill:url(#SVGID_22_);}
</style>
<g>
	<g>
		<linearGradient id="SVGID_1_" gradientUnits="userSpaceOnUse" x1="140.5844" y1="138.5629" x2="174.7392" y2="138.5629">
			<stop  offset="0" style="stop-color:#3F7CBE"/>
			<stop  offset="1" style="stop-color:#58BDB4"/>
		</linearGradient>
		<path class="st0" d="M161,138.9v2.5h13.1l-2.4,6H161v3.5h13.7l-2.4,6h-31.7l2.4-6h11v-3.5h-12.8l2.4-6H154v-2.5H161z M161,120.2
			v2.3h12.3l-2.4,6h-10v3.5h13.2l-2.4,6H141l2.4-6H154v-3.5H142l2.4-6h9.7v-2.3H161z"/>
		<linearGradient id="SVGID_2_" gradientUnits="userSpaceOnUse" x1="175.827" y1="138.539" x2="222" y2="138.539">
			<stop  offset="0" style="stop-color:#3F7CBE"/>
			<stop  offset="1" style="stop-color:#58BDB4"/>
		</linearGradient>
		<path class="st1" d="M193.7,125.1l-2.3,6h-2.4v4h4.4l-4.4,5.2v12.5c0,1.2-0.4,2.2-1.2,3c-0.8,0.8-1.8,1.2-3,1.2h-8.4l2.1-6h2.5
			c0.3,0,0.6-0.1,0.8-0.3c0.2-0.2,0.3-0.5,0.3-0.8v-3.7h-6.2l6.2-7.3v-7.8h-6.1l2.4-6h3.7v-4.9h7v4.9H193.7z M201.4,122.4l-0.5,13.1
			h14c0.2,0,0.2-0.1,0.2-0.3v-6.1c0-0.2-0.1-0.3-0.2-0.3h-13l1.2-6.4h1.8v-2.3h6.9v2.3h7.3c0.9,0,1.6,0.2,2.2,0.7
			c0.5,0.5,0.8,1.2,0.8,2.2v10.3c0,0.8-0.2,1.3-0.7,1.7l-3.6,3.5c-0.2,0.2-0.5,0.3-0.8,0.4c-0.4,0.1-0.7,0.2-0.9,0.2h-15.3
			l-0.6,15.5h-6.9l1.3-34.6H201.4z"/>
	</g>
	<linearGradient id="SVGID_3_" gradientUnits="userSpaceOnUse" x1="131.8788" y1="144.1801" x2="138.702" y2="144.1801">
		<stop  offset="0" style="stop-color:#3F7CBE"/>
		<stop  offset="1" style="stop-color:#58BDB4"/>
	</linearGradient>
	<rect x="131.9" y="131.4" class="st2" width="6.8" height="25.5"/>
	<polygon class="st3" points="7.8,76.1 7.8,76.1 7.8,76.1 	"/>
	<linearGradient id="SVGID_4_" gradientUnits="userSpaceOnUse" x1="108.8002" y1="83.2593" x2="141.0046" y2="83.2593">
		<stop  offset="0" style="stop-color:#41AFA6"/>
		<stop  offset="1" style="stop-color:#459DD0"/>
	</linearGradient>
	<path class="st4" d="M133,72.6c-2-0.4-3.4-0.5-3.4-0.5c-16.3-1.8-20.8,16.4-20.8,16.4c22-11.4,30.3,2.3,32.2,6.1
		C141.3,85.5,138.5,77.5,133,72.6z"/>
	<linearGradient id="SVGID_5_" gradientUnits="userSpaceOnUse" x1="108.8002" y1="83.2593" x2="141.0046" y2="83.2593">
		<stop  offset="0" style="stop-color:#3E5D8F"/>
		<stop  offset="1" style="stop-color:#459DD0;stop-opacity:0"/>
	</linearGradient>
	<path class="st5" d="M133,72.6c-2-0.4-3.4-0.5-3.4-0.5c-16.3-1.8-20.8,16.4-20.8,16.4c22-11.4,30.3,2.3,32.2,6.1
		C141.3,85.5,138.5,77.5,133,72.6z"/>
	<linearGradient id="SVGID_6_" gradientUnits="userSpaceOnUse" x1="143.2231" y1="100.1785" x2="121.3229" y2="80.9063">
		<stop  offset="0" style="stop-color:#3E5D8F"/>
		<stop  offset="1" style="stop-color:#459DD0;stop-opacity:0"/>
	</linearGradient>
	<path class="st6" d="M133,72.6c-2-0.4-3.4-0.5-3.4-0.5c-16.3-1.8-20.8,16.4-20.8,16.4c22-11.4,30.3,2.3,32.2,6.1
		C141.3,85.5,138.5,77.5,133,72.6z"/>
	<path class="st7" d="M45.7,155.5c-1.4-0.9-2.8-2.1-4.2-3.6C42.7,153.3,44.1,154.5,45.7,155.5z"/>
	<linearGradient id="SVGID_7_" gradientUnits="userSpaceOnUse" x1="29.2983" y1="93.4176" x2="59.7627" y2="102.0759">
		<stop  offset="0" style="stop-color:#3F7CBE"/>
		<stop  offset="1" style="stop-color:#58BDB4"/>
	</linearGradient>
	<path class="st8" d="M41.5,151.9c-2.8-3.2-5.1-7.8-4.5-14.3l0,0c-0.2-6.8,1.1-14.4,2.8-21.4C44.1,99,70.7,45.6,70.7,45.6l-0.2,0.1
		c-11.7,11.3-48.2,49.4-51.8,89c7.9,20.9,26.2,23.2,31.9,23.4c-0.8-0.3-3-1.2-4.9-2.5C44.1,154.5,42.7,153.3,41.5,151.9z"/>
	<linearGradient id="SVGID_8_" gradientUnits="userSpaceOnUse" x1="30.8179" y1="87.2085" x2="54.548" y2="100.6769">
		<stop  offset="0" style="stop-color:#3E5D8F"/>
		<stop  offset="1" style="stop-color:#459DD0;stop-opacity:0"/>
	</linearGradient>
	<path class="st9" d="M41.5,151.9c-2.8-3.2-5.1-7.8-4.5-14.3l0,0c-0.2-6.8,1.1-14.4,2.8-21.4C44.1,99,70.7,45.6,70.7,45.6l-0.2,0.1
		c-11.7,11.3-48.2,49.4-51.8,89c7.9,20.9,26.2,23.2,31.9,23.4c-0.8-0.3-3-1.2-4.9-2.5C44.1,154.5,42.7,153.3,41.5,151.9z"/>
	<linearGradient id="SVGID_9_" gradientUnits="userSpaceOnUse" x1="13.9516" y1="96.7682" x2="47.8238" y2="58.4576">
		<stop  offset="0" style="stop-color:#3F7CBE"/>
		<stop  offset="1" style="stop-color:#58BDB4"/>
	</linearGradient>
	<path class="st10" d="M70.5,45.6L6.7,61.7L0,79.4l30-5.3c-19.6,23.4-11.7,59.3-11.7,59.3c0.1,0.4,0.3,0.8,0.4,1.2
		C22.3,95.1,58.8,57,70.5,45.6z"/>
	<linearGradient id="SVGID_10_" gradientUnits="userSpaceOnUse" x1="93.7999" y1="80.1154" x2="59.1666" y2="75.4121">
		<stop  offset="0" style="stop-color:#41AFA6"/>
		<stop  offset="1" style="stop-color:#4380C2"/>
	</linearGradient>
	<path class="st11" d="M69.8,85.4c8.8-11,23.7,0.3,23.7,0.3C93.3,71,78.4,69.2,75.3,69.2c-0.2,0-0.5,0-0.7,0
		C72.1,73.1,69.2,79.1,69.8,85.4z"/>
	<linearGradient id="SVGID_11_" gradientUnits="userSpaceOnUse" x1="69.7241" y1="77.4539" x2="93.4992" y2="77.4539">
		<stop  offset="0" style="stop-color:#3F7B91"/>
		<stop  offset="1" style="stop-color:#459DD0;stop-opacity:0"/>
	</linearGradient>
	<path class="st12" d="M69.8,85.4c8.8-11,23.7,0.3,23.7,0.3C93.3,71,78.4,69.2,75.3,69.2c-0.2,0-0.5,0-0.7,0
		C72.1,73.1,69.2,79.1,69.8,85.4z"/>
	<linearGradient id="SVGID_12_" gradientUnits="userSpaceOnUse" x1="102.9748" y1="109.4262" x2="155.2768" y2="109.4262">
		<stop  offset="0" style="stop-color:#3F7CBE"/>
		<stop  offset="1" style="stop-color:#58BDB4"/>
	</linearGradient>
	<path class="st13" d="M154.5,87.9c-3.3-12.9-17.2-14.5-21.9-15.4c3.4,3.7,6.3,11.3,6.6,15.5c2,24.6-36.3,48.6-36.3,48.6l0,0
		c5.4,3.7,11.7,7.1,19,9.8c5.8-4.6,17-17.7,21.9-24.2C154.8,107.6,156.6,96,154.5,87.9z"/>
	<linearGradient id="SVGID_13_" gradientUnits="userSpaceOnUse" x1="106.4403" y1="145.5726" x2="124.8259" y2="117.7805">
		<stop  offset="0" style="stop-color:#3E5D8F"/>
		<stop  offset="1" style="stop-color:#459DD0;stop-opacity:0"/>
	</linearGradient>
	<path class="st14" d="M154.5,87.9c-3.3-12.9-17.2-14.5-21.9-15.4c3.4,3.7,6.3,11.3,6.6,15.5c2,24.6-36.3,48.6-36.3,48.6l0,0
		c5.4,3.7,11.7,7.1,19,9.8c5.8-4.6,17-17.7,21.9-24.2C154.8,107.6,156.6,96,154.5,87.9z"/>
	<linearGradient id="SVGID_14_" gradientUnits="userSpaceOnUse" x1="82.5293" y1="100.7829" x2="128.5395" y2="100.7829">
		<stop  offset="0" style="stop-color:#41AFA6"/>
		<stop  offset="1" style="stop-color:#459DD0"/>
	</linearGradient>
	<path class="st15" d="M94.2,129.6c5.5-22.4,8.3-33.2,15.6-41.6c13.2-15.1,18.7-15.9,18.7-15.9c-33.4-2.9-46,44.2-46,44.3
		C85.6,120.8,89.5,125.3,94.2,129.6z"/>
	<linearGradient id="SVGID_15_" gradientUnits="userSpaceOnUse" x1="59.7969" y1="147.1868" x2="83.4677" y2="147.1868">
		<stop  offset="0" style="stop-color:#41AFA6"/>
		<stop  offset="1" style="stop-color:#459DD0"/>
	</linearGradient>
	<path class="st16" d="M74.3,136.8c-2.5,4.8-4.8,8.6-6.1,10.8c-1.8,4.4-5.2,7.7-8.4,10.1c12.8-1.5,20-7,23.7-10.9
		C81.9,145.2,78.3,141.6,74.3,136.8z"/>
	<linearGradient id="SVGID_16_" gradientUnits="userSpaceOnUse" x1="79.4436" y1="141.1659" x2="72.0852" y2="149.0499">
		<stop  offset="0" style="stop-color:#1F7C7F"/>
		<stop  offset="1" style="stop-color:#459DD0;stop-opacity:0"/>
	</linearGradient>
	<path class="st17" d="M74.3,136.8c-2.5,4.8-4.8,8.6-6.1,10.8c-1.8,4.4-5.2,7.7-8.4,10.1c12.8-1.5,20-7,23.7-10.9
		C81.9,145.2,78.3,141.6,74.3,136.8z"/>
	<linearGradient id="SVGID_17_" gradientUnits="userSpaceOnUse" x1="55.2246" y1="113.5815" x2="121.9987" y2="113.5815">
		<stop  offset="0" style="stop-color:#3F7CBE"/>
		<stop  offset="1" style="stop-color:#58BDB4"/>
	</linearGradient>
	<path class="st18" d="M103,136.6c-3.2-2.2-6.2-4.5-8.8-7c-4.7-4.3-8.5-8.8-11.6-13.3c-11-15.8-13-30.6-13-30.6
		c0.1-0.1,0.2-0.2,0.3-0.3c-0.7-6.4,2.2-12.4,4.8-16.2c-21.7,0.6-19.3,28.3-19.3,28.3c0.1,13.9,10.6,29.3,19,39.3
		c4,4.8,7.5,8.4,9.2,10c0.6,0.6,0.9,0.9,0.9,0.9c12.8,12.6,21,10.1,21,10.1c6-0.3,16.6-11.4,16.6-11.4
		C114.7,143.6,108.4,140.3,103,136.6z"/>
	<linearGradient id="SVGID_18_" gradientUnits="userSpaceOnUse" x1="36.8858" y1="147.7506" x2="68.1773" y2="147.7506">
		<stop  offset="0" style="stop-color:#3F7CBE"/>
		<stop  offset="1" style="stop-color:#58BDB4"/>
	</linearGradient>
	<path class="st19" d="M66.2,149.2C46.9,160.7,37,137.7,37,137.7c0,1,0.1,2,0.2,3c-0.1-1-0.2-2.1-0.2-3.2l0,0
		c-0.6,5.9,1.3,10.3,3.7,13.4c0.2,0.3,0.5,0.7,0.7,1c1.3,1.5,2.8,2.7,4.2,3.6c1.9,1.2,3.1,1.8,4,2.1c0.4,0.1,0.8,0.3,0.8,0.3
		c3.3,0.1,6.6,0,9.4-0.4c3.2-2.4,6.8-5.7,8.4-10.1C67.1,148.7,66.8,148.9,66.2,149.2z"/>
	<linearGradient id="SVGID_19_" gradientUnits="userSpaceOnUse" x1="84.7683" y1="124.786" x2="97.558" y2="105.3387">
		<stop  offset="0" style="stop-color:#1F7C7F"/>
		<stop  offset="1" style="stop-color:#459DD0;stop-opacity:0"/>
	</linearGradient>
	<path class="st20" d="M94.2,129.6c5.5-22.4,8.3-33.2,15.6-41.6c13.2-15.1,18.7-15.9,18.7-15.9c-33.4-2.9-46,44.2-46,44.3
		C85.6,120.8,89.5,125.3,94.2,129.6z"/>
	<linearGradient id="SVGID_20_" gradientUnits="userSpaceOnUse" x1="65.2903" y1="149.2225" x2="50.0478" y2="148.1712">
		<stop  offset="0" style="stop-color:#3E5D8F"/>
		<stop  offset="1" style="stop-color:#459DD0;stop-opacity:0"/>
	</linearGradient>
	<path class="st21" d="M66.2,149.2C46.9,160.7,37,137.7,37,137.7c0,1,0.1,2,0.2,3c-0.1-1-0.2-2.1-0.2-3.2l0,0
		c-0.6,5.9,1.3,10.3,3.7,13.4c0.2,0.3,0.5,0.7,0.7,1c1.3,1.5,2.8,2.7,4.2,3.6c1.9,1.2,3.1,1.8,4,2.1c0.4,0.1,0.8,0.3,0.8,0.3
		c3.3,0.1,6.6,0,9.4-0.4c3.2-2.4,6.8-5.7,8.4-10.1C67.1,148.7,66.8,148.9,66.2,149.2z"/>
	<linearGradient id="SVGID_21_" gradientUnits="userSpaceOnUse" x1="45.5556" y1="134.5294" x2="53.4397" y2="147.6695">
		<stop  offset="0" style="stop-color:#3E5D8F"/>
		<stop  offset="1" style="stop-color:#459DD0;stop-opacity:0"/>
	</linearGradient>
	<path class="st22" d="M66.2,149.2C46.9,160.7,37,137.7,37,137.7c0,1,0.1,2,0.2,3c-0.1-1-0.2-2.1-0.2-3.2l0,0
		c-0.6,5.9,1.3,10.3,3.7,13.4c0.2,0.3,0.5,0.7,0.7,1c1.3,1.5,2.8,2.7,4.2,3.6c1.9,1.2,3.1,1.8,4,2.1c0.4,0.1,0.8,0.3,0.8,0.3
		c3.3,0.1,6.6,0,9.4-0.4c3.2-2.4,6.8-5.7,8.4-10.1C67.1,148.7,66.8,148.9,66.2,149.2z"/>
	
		<linearGradient id="SVGID_22_" gradientUnits="userSpaceOnUse" x1="137.9356" y1="138.936" x2="144.1669" y2="138.936" gradientTransform="matrix(1.6998 5.830000e-02 -3.430000e-02 0.9994 -39.6532 -3.3811)">
		<stop  offset="0" style="stop-color:#3F7CBE"/>
		<stop  offset="1" style="stop-color:#58BDB4"/>
	</linearGradient>
	<path class="st23" d="M194.5,122.4l-1.3,34.6c0,0-1.1,4.1-3.8,5.4l5.2,2.7c0,0,4.6-1.1,5.5-8l1.3-34.8H194.5z"/>
</g>
</svg>
