<?xml version="1.0" encoding="utf-8"?>
<!-- Generator: Adobe Illustrator 22.0.0, SVG Export Plug-In . SVG Version: 6.00 Build 0)  -->
<svg version="1.1" id="图层_1" xmlns="http://www.w3.org/2000/svg" xmlns:xlink="http://www.w3.org/1999/xlink" x="0px" y="0px"
	 viewBox="0 0 222 222" style="enable-background:new 0 0 222 222;" xml:space="preserve">
<style type="text/css">
	.st0{fill:#FFFFFF;}
</style>
<g>
	<g>
		<path class="st0" d="M161,139.8v2.5h13.1l-2.4,6H161v3.5h13.7l-2.4,6h-31.7l2.4-6h11v-3.5h-12.8l2.4-6H154v-2.5H161z M161,121.1
			v2.3h12.3l-2.4,6h-10v3.5h13.2l-2.4,6H141l2.4-6H154v-3.5H142l2.4-6h9.7v-2.3H161z"/>
		<path class="st0" d="M193.7,126l-2.3,6h-2.4v4h4.4l-4.4,5.2v12.5c0,1.2-0.4,2.2-1.2,3c-0.8,0.8-1.8,1.2-3,1.2h-8.4l2.1-6h2.5
			c0.3,0,0.6-0.1,0.8-0.3c0.2-0.2,0.3-0.5,0.3-0.8v-3.7h-6.2l6.2-7.3V132h-6.1l2.4-6h3.7v-4.9h7v4.9H193.7z M201.4,123.3l-0.5,13.1
			h14c0.2,0,0.2-0.1,0.2-0.3V130c0-0.2-0.1-0.3-0.2-0.3h-13l1.2-6.4h1.8V121h6.9v2.3h7.3c0.9,0,1.6,0.2,2.2,0.7
			c0.5,0.5,0.8,1.2,0.8,2.2v10.3c0,0.8-0.2,1.3-0.7,1.7l-3.6,3.5c-0.2,0.2-0.5,0.3-0.8,0.4c-0.4,0.1-0.7,0.2-0.9,0.2h-15.3
			l-0.6,15.5h-6.9l1.3-34.6H201.4z"/>
	</g>
	<rect x="131.9" y="132.3" class="st0" width="6.8" height="25.5"/>
	<polygon class="st0" points="7.8,77 7.8,77 7.8,77 	"/>
	<path class="st0" d="M133,73.5c-2-0.4-3.4-0.5-3.4-0.5c-16.3-1.8-20.8,16.4-20.8,16.4c22-11.4,30.3,2.3,32.2,6.1
		C141.3,86.4,138.5,78.4,133,73.5z"/>
	<path class="st0" d="M133,73.5c-2-0.4-3.4-0.5-3.4-0.5c-16.3-1.8-20.8,16.4-20.8,16.4c22-11.4,30.3,2.3,32.2,6.1
		C141.3,86.4,138.5,78.4,133,73.5z"/>
	<path class="st0" d="M133,73.5c-2-0.4-3.4-0.5-3.4-0.5c-16.3-1.8-20.8,16.4-20.8,16.4c22-11.4,30.3,2.3,32.2,6.1
		C141.3,86.4,138.5,78.4,133,73.5z"/>
	<path class="st0" d="M45.7,156.4c-1.4-0.9-2.8-2.1-4.2-3.6C42.7,154.2,44.1,155.4,45.7,156.4z"/>
	<path class="st0" d="M41.5,152.8c-2.8-3.2-5.1-7.8-4.5-14.3l0,0c-0.2-6.8,1.1-14.4,2.8-21.4c4.2-17.2,30.8-70.6,30.8-70.6l-0.2,0.1
		c-11.7,11.3-48.2,49.4-51.8,89c7.9,20.9,26.2,23.2,31.9,23.4c-0.8-0.3-3-1.2-4.9-2.5C44.1,155.4,42.7,154.2,41.5,152.8z"/>
	<path class="st0" d="M41.5,152.8c-2.8-3.2-5.1-7.8-4.5-14.3l0,0c-0.2-6.8,1.1-14.4,2.8-21.4c4.2-17.2,30.8-70.6,30.8-70.6l-0.2,0.1
		c-11.7,11.3-48.2,49.4-51.8,89c7.9,20.9,26.2,23.2,31.9,23.4c-0.8-0.3-3-1.2-4.9-2.5C44.1,155.4,42.7,154.2,41.5,152.8z"/>
	<path class="st0" d="M70.5,46.5L6.7,62.6L0,80.3L30,75c-19.6,23.4-11.7,59.3-11.7,59.3c0.1,0.4,0.3,0.8,0.4,1.2
		C22.3,96,58.8,57.9,70.5,46.5z"/>
	<path class="st0" d="M69.8,86.3c8.8-11,23.7,0.3,23.7,0.3c-0.2-14.7-15.1-16.6-18.2-16.6c-0.2,0-0.5,0-0.7,0
		C72.1,74,69.2,80,69.8,86.3z"/>
	<path class="st0" d="M69.8,86.3c8.8-11,23.7,0.3,23.7,0.3c-0.2-14.7-15.1-16.6-18.2-16.6c-0.2,0-0.5,0-0.7,0
		C72.1,74,69.2,80,69.8,86.3z"/>
	<path class="st0" d="M154.5,88.8c-3.3-12.9-17.2-14.5-21.9-15.4c3.4,3.7,6.3,11.3,6.6,15.5c2,24.6-36.3,48.6-36.3,48.6l0,0
		c5.4,3.7,11.7,7.1,19,9.8c5.8-4.6,17-17.7,21.9-24.2C154.8,108.5,156.6,96.9,154.5,88.8z"/>
	<path class="st0" d="M154.5,88.8c-3.3-12.9-17.2-14.5-21.9-15.4c3.4,3.7,6.3,11.3,6.6,15.5c2,24.6-36.3,48.6-36.3,48.6l0,0
		c5.4,3.7,11.7,7.1,19,9.8c5.8-4.6,17-17.7,21.9-24.2C154.8,108.5,156.6,96.9,154.5,88.8z"/>
	<path class="st0" d="M94.2,130.5c5.5-22.4,8.3-33.2,15.6-41.6C123,73.7,128.5,73,128.5,73c-33.4-2.9-46,44.2-46,44.3
		C85.6,121.7,89.5,126.2,94.2,130.5z"/>
	<path class="st0" d="M74.3,137.7c-2.5,4.8-4.8,8.6-6.1,10.8c-1.8,4.4-5.2,7.7-8.4,10.1c12.8-1.5,20-7,23.7-10.9
		C81.9,146.1,78.3,142.5,74.3,137.7z"/>
	<path class="st0" d="M74.3,137.7c-2.5,4.8-4.8,8.6-6.1,10.8c-1.8,4.4-5.2,7.7-8.4,10.1c12.8-1.5,20-7,23.7-10.9
		C81.9,146.1,78.3,142.5,74.3,137.7z"/>
	<path class="st0" d="M103,137.5c-3.2-2.2-6.2-4.5-8.8-7c-4.7-4.3-8.5-8.8-11.6-13.3c-11-15.8-13-30.6-13-30.6
		c0.1-0.1,0.2-0.2,0.3-0.3C69.2,80,72.1,74,74.6,70.1c-21.7,0.6-19.3,28.3-19.3,28.3c0.1,13.9,10.6,29.3,19,39.3
		c4,4.8,7.5,8.4,9.2,10c0.6,0.6,0.9,0.9,0.9,0.9c12.8,12.6,21,10.1,21,10.1c6-0.3,16.6-11.4,16.6-11.4
		C114.7,144.5,108.4,141.2,103,137.5z"/>
	<path class="st0" d="M66.2,150.1C46.9,161.6,37,138.6,37,138.6c0,1,0.1,2,0.2,3c-0.1-1-0.2-2.1-0.2-3.2l0,0
		c-0.6,5.9,1.3,10.3,3.7,13.4c0.2,0.3,0.5,0.7,0.7,1c1.3,1.5,2.8,2.7,4.2,3.6c1.9,1.2,3.1,1.8,4,2.1c0.4,0.1,0.8,0.3,0.8,0.3
		c3.3,0.1,6.6,0,9.4-0.4c3.2-2.4,6.8-5.7,8.4-10.1C67.1,149.6,66.8,149.8,66.2,150.1z"/>
	<path class="st0" d="M94.2,130.5c5.5-22.4,8.3-33.2,15.6-41.6C123,73.7,128.5,73,128.5,73c-33.4-2.9-46,44.2-46,44.3
		C85.6,121.7,89.5,126.2,94.2,130.5z"/>
	<path class="st0" d="M66.2,150.1C46.9,161.6,37,138.6,37,138.6c0,1,0.1,2,0.2,3c-0.1-1-0.2-2.1-0.2-3.2l0,0
		c-0.6,5.9,1.3,10.3,3.7,13.4c0.2,0.3,0.5,0.7,0.7,1c1.3,1.5,2.8,2.7,4.2,3.6c1.9,1.2,3.1,1.8,4,2.1c0.4,0.1,0.8,0.3,0.8,0.3
		c3.3,0.1,6.6,0,9.4-0.4c3.2-2.4,6.8-5.7,8.4-10.1C67.1,149.6,66.8,149.8,66.2,150.1z"/>
	<path class="st0" d="M66.2,150.1C46.9,161.6,37,138.6,37,138.6c0,1,0.1,2,0.2,3c-0.1-1-0.2-2.1-0.2-3.2l0,0
		c-0.6,5.9,1.3,10.3,3.7,13.4c0.2,0.3,0.5,0.7,0.7,1c1.3,1.5,2.8,2.7,4.2,3.6c1.9,1.2,3.1,1.8,4,2.1c0.4,0.1,0.8,0.3,0.8,0.3
		c3.3,0.1,6.6,0,9.4-0.4c3.2-2.4,6.8-5.7,8.4-10.1C67.1,149.6,66.8,149.8,66.2,150.1z"/>
	<path class="st0" d="M194.5,123.3l-1.3,34.6c0,0-1.1,4.1-3.8,5.4l5.2,2.7c0,0,4.6-1.1,5.5-8l1.3-34.8H194.5z"/>
</g>
</svg>
