<?xml version="1.0" encoding="utf-8"?>
<!-- Generator: Adobe Illustrator 22.0.0, SVG Export Plug-In . SVG Version: 6.00 Build 0)  -->
<svg version="1.1" id="图层_1" xmlns="http://www.w3.org/2000/svg" xmlns:xlink="http://www.w3.org/1999/xlink" x="0px" y="0px"
	 viewBox="0 0 552 222" style="enable-background:new 0 0 552 222;" xml:space="preserve">
<style type="text/css">
	.st0{fill:#FFFFFF;}
</style>
<g>
	<path class="st0" d="M251.8,123.3c6.2-12.2,9.6-23.1,10.2-32.7c-0.2-0.8,0.3-1.2,1.5-1.2c6.2,1.4,9.6,2.3,10.2,2.9l-0.6,0.9
		c-0.8,1-1.4,1.9-1.7,2.9c-0.2,0.6-0.5,1.7-0.9,3.2c-1.4,4.9-2.3,8-2.9,9.3V151c2.1-1.6,4.1-4.1,5.8-7.6c0-0.2-0.1-0.4-0.3-0.6
		c-2.3-4.3-4-8-5-11.1l7.3-2.3l1.7,4.1c0.4-2.7,0.7-5.9,0.9-9.6c-4.1,0.4-6.7,0.8-7.9,1.2c-0.2-0.8-0.5-3.3-0.9-7.6
		c2.5,1.2,4.6-3.4,6.1-13.7h-3.2v-7.3h13.4c-0.4,3.1-1.5,7.8-3.2,14c-0.8,2.7-1.4,4.9-1.7,6.4l6.1-0.3c-0.2,8.7-1.3,17.4-3.2,25.9
		c3.1,3.3,7,5.2,11.7,5.5v-5.5h-8.5v-6.7h8.5v-2.6H288v-6.7h7.3v-2.9h-7v-7h7v-3.2h-10.2v-6.7h10.2v-3.2h-7.6v-7h7.6v-6.7
		c6.4,0,9.4,0.1,9,0.3c0.2,0,0.2,0.4,0,1.2c-0.2,1-0.3,2-0.3,3.2v2h11.7v10.2h4.1v7h-4.1v9.9H304v2.9h10.8v6.7H304v2.6h12.5v6.7H304
		v5.8c3.7,0,8.3-0.1,13.7-0.3h4.7c-1,1.9-1.9,4.5-2.9,7.6l-0.6,1.7c-14.2,0.2-23.9-0.4-29.2-1.7c-3.5-1-6.9-2.8-10.2-5.5
		c-0.6,0.6-1.6,1.8-2.9,3.8c-0.8,1.4-1.5,2.3-2,2.9l-0.9-0.6c-2.1-1.7-4.2-3.2-6.1-4.4v5.5h-8.2v-30.3c-0.6,1.6-1.4,2.9-2.3,4.1
		C256.7,129.8,254.9,127.2,251.8,123.3z M304,103.5v3.2h3.5v-3.2H304z M304,113.4v3.2h3.5v-3.2H304z"/>
	<path class="st0" d="M332.9,95.3h25.7c-0.6-2.3-1-4-1.2-5c0.4,0,1.2-0.1,2.3-0.3c5.2-0.8,8.2-1,8.7-0.6c0.2,0.8,0.4,2,0.6,3.8
		c0.2,0.8,0.3,1.4,0.3,1.7h23.3v8.2h-24.2v2.9h18.1v9.6h8.2v6.7h-8.2v9.6h-2.6c1.2,0.6,2.3,1.4,3.5,2.3c1.7,1.2,2.5,1.9,2.3,2.3
		c-0.2,0.4-0.7,0.7-1.5,0.9c-2.5,1.2-5.2,2.8-7.9,5c3.1,1.7,8.2,3.3,15.2,4.7c-2.1,2.3-4.1,5.5-5.8,9.6c-9.3-3.9-16.3-8.4-21-13.4
		v9.9c0,3.3-3.9,5-11.7,5c0-3.1-0.9-5.8-2.6-8.2c3.9,0.2,5.6-0.5,5.2-2v-2.3c-1.6,1-4.1,2.4-7.6,4.4c-3.3,1.7-5.8,3.1-7.6,4.1H344
		c-0.6-1.2-1.7-2.8-3.5-5c-0.6-0.6-1-1.1-1.2-1.5c-0.4,0.8-1,2-1.7,3.8c-0.8,1.9-1.4,3.3-1.7,4.1c-2.9-1.9-6-3.3-9.3-4.1
		c4.5-5.8,6.6-16,6.4-30.6V95.3z M344.6,132v-6.7h15.2v-2.9h-17.8c0,9.1-0.7,17-2,23.6c7-2.1,13.6-5.1,19.8-8.7V132h-7
		c0.2,0.4,0.7,1,1.5,1.7c1.4,1.4,2.1,2.3,2.3,2.9l-7.9,5c-1.4-1.6-3.1-3.6-5.2-6.1c0-0.2,0.6-0.6,1.7-1.2c1.4-1,2.5-1.7,3.5-2.3
		H344.6z M344.6,106.1h15.2v-2.9h-17.8v12.5h17.8v-2.6h-15.2V106.1z M368.5,113.1v2.6h9v-2.6H368.5z M377.5,125.3v-2.9h-9v2.9H377.5
		z M369.1,132c1.4,1.9,2.9,3.7,4.7,5.2c0.4-0.2,0.8-0.6,1.2-1.2c2.1-1.6,3.6-2.9,4.4-4.1H369.1z"/>
	<path class="st0" d="M404.6,107.2c4.5-6,7.8-11.9,9.9-17.5c4.3,0.4,7.5,0.8,9.6,1.2c0.8,0,1.1,0.3,0.9,0.9c0,0.2-0.3,0.6-0.9,1.2
		c-0.6,1-1.2,1.7-1.7,2.3h15.2v7.3h-9c1.4,3.1,1.9,5,1.7,5.5c0,0.2-2.8,1.1-8.5,2.6c0-0.2-0.5-2.9-1.5-8.2H418
		c-2.3,3.5-4.3,6.2-5.8,8.2L404.6,107.2z M441.9,108.1l0.3,3.2h26.8v13.1h-9v-6.7h-46.4v6.4h-8.7v-12.8h27.4
		c-0.4-0.8-0.9-1.9-1.5-3.5c0-0.4,2.4-0.7,7.3-0.9c-0.4-0.2-1.1-0.6-2-1.2c3.5-5.2,5.9-10.5,7.3-15.7c4.1,0.2,7.2,0.5,9.3,0.9
		c0.6,0,1,0.2,1.2,0.6c0,0.2-0.2,0.6-0.6,1.2c-0.6,0.6-1.2,1.5-1.7,2.6h17.5v7.3h-9.6l1.7,5.8l-7.9,2.3c-0.6-1.6-1.5-4.3-2.6-8.2
		h-2.6c-1.7,2.5-3.1,4.7-4.1,6.4C443.8,109,443.1,108.7,441.9,108.1z M426.2,157.7h-9.3v-37.3h40.2v15.5h-30.9v2.6h33.2v19h-9v-3.2
		h-24.2V157.7z M448.1,129.7v-2.9h-21.9v2.9H448.1z M450.4,148.6v-3.5h-24.2v3.5H450.4z"/>
	<path class="st0" d="M486.8,102.3h-9v-7.6h24.8v7.6h-7v12.5h6.7v7.9h-6.7v14c0.8-0.2,1.8-0.5,3.2-0.9c1.7-0.6,3.1-1.1,4.1-1.5
		c0,0.8,0.1,1.9,0.3,3.2c0.2,3.3,0.3,5.2,0.3,5.5c-7.6,2.3-15.1,4.9-22.5,7.6c-1.6-2.9-2.8-6.1-3.8-9.6c1.2-0.4,2.8-0.8,5-1.2
		c2.1-0.6,3.7-1,4.7-1.2v-16h-8.5v-7.9h8.5V102.3z M505.2,141.9v-7.6h13.1v-5.2h-14V93h38.2v36.2h-15.5v5.2H542v7.6h-14.9v6.1h18.7
		v7.6h-46.1v-7.6h18.7v-6.1H505.2z M513.1,100.5v7h5.2v-7H513.1z M513.1,114.8v6.7h5.2v-6.7H513.1z M527.1,100.5v7h6.1v-7H527.1z
		 M527.1,121.5h6.1v-6.7h-6.1V121.5z"/>
</g>
<g>
	<path class="st0" d="M261.8,63.2h-4.7c-0.9,0-1.6,0.7-1.6,1.6v4.8c0,0.9-0.7,1.6-1.6,1.6h-0.5c-0.9,0-1.6-0.7-1.6-1.6V54
		c0-0.9,0.7-1.6,1.6-1.6h0.5c0.9,0,1.6,0.7,1.6,1.6v3.6c0,0.9,0.7,1.6,1.6,1.6h4.7c0.9,0,1.6-0.7,1.6-1.6V54c0-0.9,0.7-1.6,1.6-1.6
		h0.5c0.9,0,1.6,0.7,1.6,1.6v15.5c0,0.9-0.7,1.6-1.6,1.6H265c-0.9,0-1.6-0.7-1.6-1.6v-4.8C263.4,63.9,262.7,63.2,261.8,63.2z"/>
	<path class="st0" d="M275.1,67.7h6.5c0.9,0,1.6,0.7,1.6,1.6v0.3c0,0.9-0.7,1.6-1.6,1.6h-10.1c-0.9,0-1.6-0.7-1.6-1.6V54
		c0-0.9,0.7-1.6,1.6-1.6h9.3c0.9,0,1.6,0.7,1.6,1.6v0.3c0,0.9-0.7,1.6-1.6,1.6h-5.6c-0.9,0-1.6,0.7-1.6,1.6v1c0,0.9,0.7,1.6,1.6,1.6
		h4.6c0.9,0,1.6,0.7,1.6,1.6v0.5c0,0.9-0.7,1.6-1.6,1.6h-4.6c-0.9,0-1.6,0.7-1.6,1.6v0.8C273.5,67,274.2,67.7,275.1,67.7z"/>
	<path class="st0" d="M293.2,52.5h1.7c0.6,0,1.2,0.4,1.5,1l6.3,15.4c0.4,1-0.3,2.2-1.5,2.2h-0.1c-0.6,0-1.2-0.4-1.5-1l-1-2.2
		c-0.3-0.6-0.8-1-1.5-1h-6.5c-0.6,0-1.2,0.4-1.5,1l-1,2.2c-0.3,0.6-0.8,1-1.5,1l0,0c-1.1,0-1.9-1.1-1.5-2.2l6.4-15.4
		C292,52.9,292.6,52.5,293.2,52.5z M293.6,63.2h1c1.1,0,1.9-1.1,1.5-2.2l-1.9-5h0l-2,5C291.7,62.1,292.5,63.2,293.6,63.2z"/>
	<path class="st0" d="M305.2,69.4V54c0-0.9,0.7-1.6,1.6-1.6h0.5c0.9,0,1.6,0.7,1.6,1.6v12c0,0.9,0.7,1.6,1.6,1.6h5.6
		c0.9,0,1.6,0.7,1.6,1.6v0.3c0,0.9-0.7,1.6-1.6,1.6h-9.2C305.9,71,305.2,70.3,305.2,69.4z"/>
	<path class="st0" d="M323.3,56l-2.2,0c-0.9,0-1.6-0.7-1.6-1.6v-0.3c0-0.9,0.7-1.6,1.6-1.6h11.4c0.9,0,1.6,0.7,1.6,1.6v0.3
		c0,0.9-0.7,1.6-1.6,1.6l-2.2,0c-0.9,0-1.6,0.7-1.6,1.6v12c0,0.9-0.7,1.6-1.6,1.6h-0.6c-0.9,0-1.6-0.7-1.6-1.6v-12
		C324.9,56.7,324.2,56,323.3,56z"/>
	<path class="st0" d="M346.1,63.2h-4.7c-0.9,0-1.6,0.7-1.6,1.6v4.8c0,0.9-0.7,1.6-1.6,1.6h-0.5c-0.9,0-1.6-0.7-1.6-1.6V54
		c0-0.9,0.7-1.6,1.6-1.6h0.5c0.9,0,1.6,0.7,1.6,1.6v3.6c0,0.9,0.7,1.6,1.6,1.6h4.7c0.9,0,1.6-0.7,1.6-1.6V54c0-0.9,0.7-1.6,1.6-1.6
		h0.5c0.9,0,1.6,0.7,1.6,1.6v15.5c0,0.9-0.7,1.6-1.6,1.6h-0.5c-0.9,0-1.6-0.7-1.6-1.6v-4.8C347.6,63.9,346.9,63.2,346.1,63.2z"/>
	<path class="st0" d="M364.9,52.5h4.9l3.9,12.9l3.9-12.9h4.9v18.6h-3.2V57.9h0l-4.2,13.2h-2.9l-4.2-13.1h0v13.1h-3.1V52.5z"/>
	<path class="st0" d="M392.2,52.5h3.8l7.6,18.6h-3.5l-1.8-4.1h-8.6l-1.8,4.1h-3.4L392.2,52.5z M391.3,63.2h5.7l-2.8-7.2h0
		L391.3,63.2z"/>
	<path class="st0" d="M408.3,57.5v13.6h-3V52.5h3h1.3l7.6,11.6V52.5h3.2v18.7h-3.2L408.3,57.5z"/>
	<path class="st0" d="M429.9,52.5h3.8l7.6,18.6h-3.5L436,67h-8.6l-1.8,4.1h-3.4L429.9,52.5z M428.9,63.2h5.7l-2.8-7.2h0L428.9,63.2z
		"/>
	<path class="st0" d="M459.4,61.8c0,0.2,0,0.5-0.1,0.9c0,0.4-0.1,0.8-0.2,1.3c-0.1,0.5-0.2,0.9-0.3,1.4c-0.1,0.5-0.3,0.8-0.4,1
		c-0.4,0.7-0.8,1.4-1.4,2c-0.5,0.6-1.1,1.1-1.8,1.6c-0.7,0.4-1.4,0.8-2.2,1c-0.8,0.2-1.6,0.4-2.4,0.4c-1.2,0-2.3-0.3-3.4-0.8
		c-1.1-0.5-2-1.2-2.8-2.1c-0.8-0.9-1.4-1.9-1.9-3.1c-0.5-1.2-0.7-2.4-0.7-3.8c0-1.3,0.2-2.6,0.7-3.7c0.5-1.2,1.1-2.2,1.9-3.1
		c0.8-0.9,1.7-1.6,2.8-2.1c1.1-0.5,2.2-0.8,3.4-0.8c0.8,0,1.6,0.1,2.4,0.4c0.8,0.2,1.5,0.6,2.1,1c0.7,0.4,1.3,0.9,1.8,1.5
		c0.5,0.6,1,1.3,1.4,2c-0.4,0.2-0.7,0.4-0.9,0.5c-0.2,0.1-0.5,0.3-0.7,0.4c-0.2,0.1-0.5,0.2-0.7,0.4c-0.3,0.1-0.6,0.3-1,0.5
		c-0.4-0.8-1.1-1.5-1.8-2c-0.8-0.5-1.6-0.8-2.6-0.8c-0.7,0-1.4,0.1-2,0.4c-0.6,0.3-1.2,0.7-1.6,1.2s-0.8,1.1-1.1,1.8
		c-0.3,0.7-0.4,1.4-0.4,2.2c0,0.8,0.1,1.5,0.4,2.2c0.3,0.7,0.6,1.3,1.1,1.8c0.5,0.5,1,0.9,1.6,1.2c0.6,0.3,1.3,0.4,2,0.4
		c1,0,1.8-0.3,2.6-0.8c0.8-0.5,1.4-1.2,1.9-2c-0.4,0-0.8,0-1.2,0c-0.3,0-0.7,0-1.1,0c-0.4,0-0.8,0-1.1,0c-0.3,0-0.6,0-0.8,0
		c-0.2,0-0.3,0-0.3,0v-2.8c0.6,0,1.3,0,2,0c0.7,0,1.4,0,2.2,0c0.8,0,1.5,0,2.3,0C457.9,61.8,458.7,61.8,459.4,61.8z"/>
	<path class="st0" d="M465.3,67.7h9.6v3.4h-13.3V52.4h12.4v3.4h-8.8v4.2h7.8v3.6h-7.8V67.7z"/>
	<path class="st0" d="M478.3,52.5h4.9l3.9,12.9l3.9-12.9h4.9v18.6h-3.2V57.9h0l-4.2,13.2h-2.9l-4.2-13.1h0v13.1h-3.1V52.5z"/>
	<path class="st0" d="M502.7,67.7h9.6v3.4h-13.3V52.4h12.4v3.4h-8.8v4.2h7.8v3.6h-7.8V67.7z"/>
	<path class="st0" d="M517.9,57.5v13.6h-3V52.5h3h1.3l7.6,11.6V52.5h3.2v18.7h-3.2L517.9,57.5z"/>
	<path class="st0" d="M537.7,56l-5.4,0v-3.4h14.5V56l-5.4,0v15.2h-3.7V56z"/>
</g>
<g>
	<path class="st0" d="M168.5,138.7v2.5h13.2l-2.4,6.1h-10.8v3.6h13.9L180,157h-32.2l2.4-6.1h11.2v-3.6h-13l2.4-6.1h10.6v-2.5H168.5z
		 M168.5,119.7v2.3H181l-2.4,6.1h-10.1v3.6h13.4l-2.4,6.1h-31.2l2.4-6.1h10.8v-3.6h-12.2l2.4-6.1h9.8v-2.3H168.5z"/>
	<path class="st0" d="M201.6,124.7l-2.4,6.1h-2.4v4h4.5l-4.5,5.3v12.7c0,1.2-0.4,2.2-1.2,3c-0.8,0.8-1.8,1.2-3,1.2H184l2.2-6.1h2.5
		c0.4,0,0.6-0.1,0.8-0.3c0.2-0.2,0.3-0.5,0.3-0.9v-3.7h-6.2l6.2-7.4v-7.9h-6.2l2.4-6.1h3.8v-5h7.1v5H201.6z M209.5,122l-0.5,13.3
		h14.2c0.2,0,0.2-0.1,0.2-0.3v-6.2c0-0.2-0.1-0.3-0.2-0.3h-13.2l1.2-6.5h1.8v-2.4h7v2.4h7.4c0.9,0,1.7,0.2,2.2,0.7
		c0.5,0.5,0.8,1.2,0.8,2.3v10.4c0,0.8-0.2,1.4-0.7,1.8l-3.7,3.6c-0.2,0.2-0.5,0.3-0.8,0.5c-0.4,0.1-0.7,0.2-0.9,0.2h-15.5l-0.6,15.7
		h-7l1.3-35.1H209.5z"/>
</g>
<rect x="139" y="131.1" class="st0" width="6.9" height="25.9"/>
<polygon class="st0" points="13.1,75 13.1,75 13.1,75 "/>
<path class="st0" d="M140,71.4c-2.1-0.5-3.4-0.5-3.4-0.5c-16.5-1.8-21.1,16.6-21.1,16.6c22.3-11.5,30.7,2.3,32.6,6.2
	C148.5,84.6,145.7,76.4,140,71.4z"/>
<path class="st0" d="M140,71.4c-2.1-0.5-3.4-0.5-3.4-0.5c-16.5-1.8-21.1,16.6-21.1,16.6c22.3-11.5,30.7,2.3,32.6,6.2
	C148.5,84.6,145.7,76.4,140,71.4z"/>
<path class="st0" d="M140,71.4c-2.1-0.5-3.4-0.5-3.4-0.5c-16.5-1.8-21.1,16.6-21.1,16.6c22.3-11.5,30.7,2.3,32.6,6.2
	C148.5,84.6,145.7,76.4,140,71.4z"/>
<path class="st0" d="M51.6,155.6c-1.4-0.9-2.9-2.1-4.2-3.6C48.5,153.3,49.9,154.6,51.6,155.6z"/>
<path class="st0" d="M47.3,151.9c-2.9-3.2-5.2-7.9-4.5-14.5l0,0c-0.3-6.9,1.1-14.6,2.8-21.7C49.9,98.2,76.9,44,76.9,44l-0.2,0.1
	c-11.9,11.5-48.9,50.1-52.5,90.3c8,21.2,26.6,23.6,32.4,23.7c-0.8-0.3-3.1-1.3-5-2.5C49.9,154.6,48.5,153.3,47.3,151.9z"/>
<path class="st0" d="M47.3,151.9c-2.9-3.2-5.2-7.9-4.5-14.5l0,0c-0.3-6.9,1.1-14.6,2.8-21.7C49.9,98.2,76.9,44,76.9,44l-0.2,0.1
	c-11.9,11.5-48.9,50.1-52.5,90.3c8,21.2,26.6,23.6,32.4,23.7c-0.8-0.3-3.1-1.3-5-2.5C49.9,154.6,48.5,153.3,47.3,151.9z"/>
<path class="st0" d="M76.7,44.1L12,60.4l-6.8,18L35.6,73c-19.9,23.7-11.8,60.1-11.8,60.1c0.1,0.4,0.3,0.8,0.5,1.3
	C27.8,94.2,64.8,55.6,76.7,44.1z"/>
<path class="st0" d="M76,84.5c8.9-11.2,24,0.3,24,0.3C99.8,69.9,84.7,68,81.5,68c-0.2,0-0.5,0-0.7,0C78.3,71.9,75.3,78,76,84.5z"/>
<path class="st0" d="M76,84.5c8.9-11.2,24,0.3,24,0.3C99.8,69.9,84.7,68,81.5,68c-0.2,0-0.5,0-0.7,0C78.3,71.9,75.3,78,76,84.5z"/>
<path class="st0" d="M161.9,87c-3.3-13.1-17.4-14.7-22.2-15.6c3.4,3.7,6.4,11.4,6.7,15.7c2,24.9-36.8,49.3-36.8,49.3l0,0
	c5.5,3.8,11.9,7.2,19.3,9.9c5.8-4.6,17.3-17.9,22.2-24.6C162.2,106.9,164,95.2,161.9,87z"/>
<path class="st0" d="M161.9,87c-3.3-13.1-17.4-14.7-22.2-15.6c3.4,3.7,6.4,11.4,6.7,15.7c2,24.9-36.8,49.3-36.8,49.3l0,0
	c5.5,3.8,11.9,7.2,19.3,9.9c5.8-4.6,17.3-17.9,22.2-24.6C162.2,106.9,164,95.2,161.9,87z"/>
<path class="st0" d="M100.7,129.3c5.6-22.8,8.4-33.7,15.8-42.2c13.4-15.4,19-16.1,19-16.1c-33.9-2.9-46.6,44.8-46.7,44.9
	C92,120.4,95.9,124.9,100.7,129.3z"/>
<path class="st0" d="M80.6,136.5c-2.5,4.8-4.8,8.7-6.2,10.9c-1.8,4.5-5.2,7.9-8.5,10.3c13-1.5,20.3-7.1,24-11
	C88.2,145.1,84.7,141.4,80.6,136.5z"/>
<path class="st0" d="M80.6,136.5c-2.5,4.8-4.8,8.7-6.2,10.9c-1.8,4.5-5.2,7.9-8.5,10.3c13-1.5,20.3-7.1,24-11
	C88.2,145.1,84.7,141.4,80.6,136.5z"/>
<path class="st0" d="M109.6,136.3c-3.3-2.2-6.2-4.6-8.9-7.1c-4.8-4.4-8.7-8.9-11.8-13.5c-11.2-16-13.2-31.1-13.2-31.1
	c0.1-0.1,0.2-0.2,0.3-0.3C75.3,78,78.3,71.9,80.8,68c-22,0.6-19.6,28.7-19.6,28.7c0.1,14.1,10.8,29.7,19.3,39.9
	c4.1,4.9,7.7,8.5,9.3,10.1c0.6,0.6,0.9,0.9,0.9,0.9c13,12.8,21.3,10.3,21.3,10.3c6-0.3,16.8-11.6,16.8-11.6
	C121.5,143.5,115.1,140.1,109.6,136.3z"/>
<path class="st0" d="M72.4,149.1c-19.6,11.6-29.6-11.7-29.6-11.7c0,1,0.1,2.1,0.2,3.1c-0.1-1.1-0.2-2.1-0.2-3.2l0,0
	c-0.6,6,1.3,10.4,3.8,13.6c0.2,0.3,0.5,0.7,0.8,1c1.4,1.5,2.9,2.7,4.2,3.6c1.9,1.3,3.2,1.8,4,2.2c0.4,0.1,0.8,0.3,0.8,0.3
	c3.4,0.1,6.7,0,9.5-0.4c3.3-2.4,6.9-5.8,8.5-10.3C73.3,148.6,72.9,148.8,72.4,149.1z"/>
<path class="st0" d="M100.7,129.3c5.6-22.8,8.4-33.7,15.8-42.2c13.4-15.4,19-16.1,19-16.1c-33.9-2.9-46.6,44.8-46.7,44.9
	C92,120.4,95.9,124.9,100.7,129.3z"/>
<path class="st0" d="M72.4,149.1c-19.6,11.6-29.6-11.7-29.6-11.7c0,1,0.1,2.1,0.2,3.1c-0.1-1.1-0.2-2.1-0.2-3.2l0,0
	c-0.6,6,1.3,10.4,3.8,13.6c0.2,0.3,0.5,0.7,0.8,1c1.4,1.5,2.9,2.7,4.2,3.6c1.9,1.3,3.2,1.8,4,2.2c0.4,0.1,0.8,0.3,0.8,0.3
	c3.4,0.1,6.7,0,9.5-0.4c3.3-2.4,6.9-5.8,8.5-10.3C73.3,148.6,72.9,148.8,72.4,149.1z"/>
<path class="st0" d="M72.4,149.1c-19.6,11.6-29.6-11.7-29.6-11.7c0,1,0.1,2.1,0.2,3.1c-0.1-1.1-0.2-2.1-0.2-3.2l0,0
	c-0.6,6,1.3,10.4,3.8,13.6c0.2,0.3,0.5,0.7,0.8,1c1.4,1.5,2.9,2.7,4.2,3.6c1.9,1.3,3.2,1.8,4,2.2c0.4,0.1,0.8,0.3,0.8,0.3
	c3.4,0.1,6.7,0,9.5-0.4c3.3-2.4,6.9-5.8,8.5-10.3C73.3,148.6,72.9,148.8,72.4,149.1z"/>
<path class="st0" d="M202.5,122l-1.3,35.1c0,0-1.1,4.2-3.8,5.5l5.2,2.8c0,0,4.7-1.1,5.6-8.1l1.3-35.3H202.5z"/>
</svg>
